<svg xmlns="http://www.w3.org/2000/svg" viewBox="-12 -12 124 124" width="1024" height="1024" preserveAspectRatio="xMidYMid meet">
<defs>
<radialGradient id="halo" cx="50%" cy="48%" r="58%">
<stop offset="0" stop-color="#ff85c5" stop-opacity="0.95"></stop>
<stop offset="0.24" stop-color="#ff2d9b" stop-opacity="0.9"></stop>
<stop offset="0.46" stop-color="#ff2d9b" stop-opacity="0.47"></stop>
<stop offset="0.7" stop-color="#ff2d9b" stop-opacity="0"></stop>
</radialGradient>
<linearGradient id="sg" x1="0.3" y1="0" x2="0.6" y2="1">
<stop offset="0" stop-color="#2f172a"></stop><stop offset="0.5" stop-color="#190c16"></stop><stop offset="1" stop-color="#050209"></stop>
</linearGradient>
<filter id="goo" x="-45%" y="-45%" width="190%" height="190%" color-interpolation-filters="sRGB">
<feGaussianBlur in="SourceGraphic" stdDeviation="2.5" result="blur"></feGaussianBlur>
<feColorMatrix in="blur" type="matrix" values="1 0 0 0 0  0 1 0 0 0  0 0 1 0 0  0 0 0 15 -5" result="goo"></feColorMatrix>
<feTurbulence type="fractalNoise" baseFrequency="0.034 0.05" numOctaves="2" seed="7" result="noise"></feTurbulence>
<feDisplacementMap in="goo" in2="noise" scale="6" xChannelSelector="R" yChannelSelector="G" result="disp"></feDisplacementMap>
<feGaussianBlur in="disp" stdDeviation="0.5"></feGaussianBlur>
</filter>
<filter id="dgoo" x="-60%" y="-60%" width="220%" height="220%" color-interpolation-filters="sRGB">
<feGaussianBlur in="SourceGraphic" stdDeviation="0.7" result="b"></feGaussianBlur>
<feColorMatrix in="b" type="matrix" values="1 0 0 0 0  0 1 0 0 0  0 0 1 0 0  0 0 0 20 -7" result="g"></feColorMatrix>
<feTurbulence type="fractalNoise" baseFrequency="0.12" numOctaves="2" seed="10" result="n"></feTurbulence>
<feDisplacementMap in="g" in2="n" scale="3.5"></feDisplacementMap>
</filter>
</defs>
<rect x="-12" y="-12" width="124" height="124" fill="url(#halo)"></rect>
<g filter="url(#goo)" fill="url(#sg)"><circle cx="50" cy="54" r="18"></circle><circle cx="50" cy="46" r="14"></circle><circle cx="50" cy="34" r="13.5"></circle><circle cx="35" cy="46" r="13"></circle><circle cx="65" cy="47" r="14"></circle><circle cx="28" cy="57" r="11.5"></circle><circle cx="72" cy="57" r="11.5"></circle><circle cx="40" cy="66" r="13"></circle><circle cx="60" cy="67" r="13"></circle><circle cx="50" cy="69" r="12"></circle><circle cx="38" cy="36" r="9.5"></circle><circle cx="62" cy="36" r="9.5"></circle><circle cx="31" cy="40" r="7.5"></circle><circle cx="69" cy="40" r="7.5"></circle><circle cx="24" cy="50" r="7.5"></circle><circle cx="76" cy="50" r="7.5"></circle><circle cx="33" cy="64" r="8.5"></circle><circle cx="67" cy="65" r="8.5"></circle><circle cx="44" cy="72" r="8.5"></circle><circle cx="57" cy="73" r="8.5"></circle><circle cx="50" cy="26" r="7.5"></circle><circle cx="42" cy="30" r="6.5"></circle><circle cx="58" cy="30" r="6.5"></circle><circle cx="44" cy="58" r="9"></circle><circle cx="56" cy="58" r="9"></circle></g>
<g filter="url(#dgoo)" fill="#050209"><circle cx="15" cy="23" r="3.4"></circle><circle cx="85" cy="21" r="4"></circle><circle cx="90" cy="48" r="2.4"></circle><circle cx="83" cy="79" r="3.6"></circle><circle cx="61" cy="86" r="2.4"></circle><circle cx="33" cy="85" r="3.2"></circle><circle cx="12" cy="59" r="2.8"></circle><circle cx="21" cy="81" r="2"></circle><circle cx="50" cy="11" r="2.4"></circle><circle cx="92" cy="34" r="2"></circle><circle cx="8" cy="39" r="2"></circle><circle cx="74" cy="91" r="1.7"></circle><circle cx="27" cy="15" r="1.8"></circle><circle cx="70" cy="15" r="1.6"></circle></g>
</svg>